<?xml version="1.0" standalone="no"?>
<!DOCTYPE svg PUBLIC "-//W3C//DTD SVG 20010904//EN"
 "http://www.w3.org/TR/2001/REC-SVG-20010904/DTD/svg10.dtd">
<svg version="1.0" xmlns="http://www.w3.org/2000/svg"
 width="715.000000pt" height="709.000000pt" viewBox="0 0 715.000000 709.000000"
 preserveAspectRatio="xMidYMid meet">

<g transform="translate(0.000000,709.000000) scale(0.100000,-0.100000)"
fill="#000000" stroke="none">
<path d="M0 6400 l0 -690 3455 0 3455 0 0 690 0 690 -3455 0 -3455 0 0 -690z"/>
<path d="M0 3635 l0 -695 3455 0 3455 0 0 695 0 695 -3455 0 -3455 0 0 -695z"/>
<path d="M0 870 l0 -690 3455 0 3455 0 0 690 0 690 -3455 0 -3455 0 0 -690z"/>
</g>
</svg>
